<?xml version="1.0" standalone="no"?>
<!DOCTYPE svg PUBLIC "-//W3C//DTD SVG 20010904//EN"
 "http://www.w3.org/TR/2001/REC-SVG-20010904/DTD/svg10.dtd">
<svg version="1.0" xmlns="http://www.w3.org/2000/svg"
 width="400.000000pt" height="400.000000pt" viewBox="0 0 400.000000 400.000000"
 preserveAspectRatio="xMidYMid meet">
<metadata>
Created by potrace 1.11, written by Peter Selinger 2001-2013
</metadata>
<g transform="translate(0.000000,400.000000) scale(0.100000,-0.100000)"
fill="#000000" stroke="none">
<path d="M2380 3982 c-126 -46 -209 -141 -234 -269 l-11 -54 -185 -4 c-102 -3
-197 -6 -212 -9 -130 -21 -133 -21 -214 -41 -396 -99 -750 -332 -996 -656 -76
-101 -134 -196 -194 -323 -44 -93 -108 -274 -119 -335 -3 -19 -8 -37 -10 -41
-2 -4 -9 -35 -15 -71 -34 -204 -33 -492 1 -673 24 -130 89 -345 111 -373 6 -7
8 -13 5 -13 -13 0 125 -255 178 -330 213 -302 487 -522 815 -653 228 -91 417
-128 675 -132 243 -4 468 35 642 111 17 8 34 14 37 14 13 0 165 76 244 123
171 100 383 281 484 412 12 17 31 39 41 50 62 67 185 276 246 422 36 83 37 93
14 94 -19 1 -401 0 -444 0 -22 -1 -32 -14 -72 -94 -167 -328 -495 -580 -871
-667 -719 -166 -1453 278 -1630 985 -8 33 -18 87 -22 120 -3 33 -8 68 -10 78
-1 9 3 17 9 18 7 0 718 2 1582 2 l1569 2 0 45 c0 62 -13 249 -19 280 -2 14 -7
44 -9 65 -24 226 -148 578 -274 780 -29 46 -30 51 -14 63 48 35 94 90 119 141
25 49 28 67 28 151 0 81 -4 102 -24 140 -75 142 -194 212 -345 204 -96 -5
-202 -66 -260 -148 -13 -19 -14 -19 -57 6 -24 14 -67 38 -95 52 l-52 27 21 42
c28 58 28 193 0 257 -59 133 -169 210 -310 215 -54 2 -92 -2 -123 -13z m-240
-766 c472 -53 860 -335 1067 -776 32 -67 96 -251 108 -307 l6 -32 -1337 0
-1336 0 6 39 c9 58 69 237 106 315 37 80 125 222 172 280 116 142 292 282 450
358 73 36 210 85 258 94 14 2 44 8 68 14 24 5 75 12 115 15 40 4 73 7 74 8 6
5 184 -2 243 -8z"/>
</g>
</svg>
